# xmcd
#
# Track frame offsets: 
#        150
#        15630
#        36226
#        56817
#        74821
#        95568
#        107512
#        120352
#        137686
#        148961
#        162249
#        172498
#        187229
#        200356
#        202249
#        205951
#        222722
#        223892
#        235914
#        248064
#        260524
#        282821
#        302686
#        320109
#
# Disc length: 4547 seconds
#
# Revision: 0
# Processed by: cddbd v1.5.2PL0 Copyright (c) Steve Scherf et al.
# Submitted via: ExactAudioCopy v0.95b3
#
DISCID=9411c118
DTITLE=Elvis Presley  - American Sound - Disc 06 - PC 86  
DYEAR=1900
DGENRE=
TTITLE0=1987 Remix (No Brass)
TTITLE1=2002 Front Remix
TTITLE2=2002 Rear Remix
TTITLE3=2002 Center Remix
TTITLE4=2002 Remix
TTITLE5=True Love Travels On A Gravel Road - Take 2 - complete
TTITLE6=True Love Travels On A Gravel Road - Take 3 - complete
TTITLE7=True Love Travels On A Gravel Road - It's My Way \\ This Time 
TTITLE7=\\ I Can't Stop Loving You jam
TTITLE8=True Love Travels On A Gravel Road - Take 4 - 4 false starts &
TTITLE8=complete
TTITLE9=True Love Travels On A Gravel Road - Take 5 - complete
TTITLE10=True Love Travels On A Gravel Road - Take 6 - rehearsal and 2 f
TTITLE10=alse starts
TTITLE11=True Love Travels On A Gravel Road - Take 7 - complete
TTITLE12=True Love Travels On A Gravel Road - Take 8 - false start and b
TTITLE12=reakdown
TTITLE13=True Love Travels On A Gravel Road - Take 9 - false start
TTITLE14=True Love Travels On A Gravel Road - Take 10 - 2 false starts
TTITLE15=True Love Travels On A Gravel Road - Take 11 - master
TTITLE16=True Love Travels On A Gravel Road - Aborted overdub session
TTITLE17=True Love Travels On A Gravel Road  +harmony vocal Feb 22nd - 
TTITLE17=string and backing vocals March 25th
TTITLE18=True Love Travels On A Gravel Road - Quad remix
TTITLE19=True Love Travels On A Gravel Road - 1987 remix
TTITLE20=Stranger In My Own Home Town - Take 1 - master
TTITLE21=Stranger In My Own Home Town  +strings and brass May 7th
TTITLE22=Stranger In My Own Home Town - Alt. mix and edit
TTITLE23=Stranger In My Own Home Town - 1987 remix
EXTD=
EXTT0=
EXTT1=
EXTT2=
EXTT3=
EXTT4=
EXTT5=
EXTT6=
EXTT7=
EXTT8=
EXTT9=
EXTT10=
EXTT11=
EXTT12=
EXTT13=
EXTT14=
EXTT15=
EXTT16=
EXTT17=
EXTT18=
EXTT19=
EXTT20=
EXTT21=
EXTT22=
EXTT23=
PLAYORDER=
